<svg fill="none" height="24" viewBox="0 0 24 24" width="24" xmlns="http://www.w3.org/2000/svg"><path d="m12.3534 3.86827c1.3668-1.36684 3.5829-1.36684 4.9497 0 1.3669 1.36683 1.3669 3.58291 0 4.94974l-7.071 7.07109c-.58584.5858-1.53558.5858-2.12137 0s-.58579-1.5356 0-2.1213l7.07107-7.07111-.7071-.7071-7.07108 7.07111c-.97631.9763-.97631 2.5592 0 3.5355s2.55923.9763 3.53558 0l7.071-7.07108c1.7574-1.75736 1.7574-4.6066 0-6.36396-1.7573-1.75736-4.6066-1.75736-6.3639 0l-7.07111 7.07104c-2.53841 2.5384-2.53841 6.654 0 9.1924s6.65401 2.5384 9.19241 0l7.0711-7.0711-.7072-.7071-7.071 7.0711c-2.1479 2.1479-5.63032 2.1479-7.7782 0s-2.14788-5.6303 0-7.7782z" fill="#000"/></svg>